<?xml version="1.0" encoding="UTF-8"?>
<svg version="1.1" xmlns="http://www.w3.org/2000/svg" width="490" height="488">
<path d="M0 0 C0.96627319 0.00054382 1.93254639 0.00108765 2.92810059 0.00164795 C18.83703806 0.0426859 34.08856087 1.01758706 49.6875 4.375 C50.70602051 4.58930664 51.72454102 4.80361328 52.77392578 5.02441406 C90.65733713 13.20994751 125.61443389 29.99023024 155.6875 54.375 C156.30608887 54.87644531 156.92467773 55.37789062 157.56201172 55.89453125 C170.52544837 66.503206 182.41412354 78.12328688 192.6875 91.375 C193.46222656 92.33277344 194.23695313 93.29054688 195.03515625 94.27734375 C225.51675242 132.5846429 245.47663715 182.68569607 245.92578125 231.9296875 C245.93552979 232.82084259 245.94527832 233.71199768 245.95532227 234.63015747 C246.12837794 254.55730156 245.87821225 273.80239124 241.6875 293.375 C241.50026367 294.26928711 241.31302734 295.16357422 241.12011719 296.08496094 C239.86445187 301.9165396 238.37136009 307.65310061 236.6875 313.375 C236.44161133 314.21160156 236.19572266 315.04820312 235.94238281 315.91015625 C225.91490822 349.27635778 208.73440739 379.32955398 185.6875 405.375 C184.92824219 406.24511719 184.16898437 407.11523438 183.38671875 408.01171875 C174.54414553 418.01654848 165.19515269 427.13342076 154.6875 435.375 C153.7490625 436.14199219 152.810625 436.90898437 151.84375 437.69921875 C119.48054263 463.59812568 79.54911994 480.15895787 38.6875 486.375 C37.52162354 486.55756348 36.35574707 486.74012695 35.15454102 486.92822266 C23.89420591 488.52718028 12.73716985 488.7741437 1.375 488.75 C0.40872681 488.74945618 -0.55754639 488.74891235 -1.55310059 488.74835205 C-17.46203806 488.7073141 -32.71356087 487.73241294 -48.3125 484.375 C-49.84028076 484.05354004 -49.84028076 484.05354004 -51.39892578 483.72558594 C-89.28233713 475.54005249 -124.23943389 458.75976976 -154.3125 434.375 C-154.93108887 433.87355469 -155.54967773 433.37210937 -156.18701172 432.85546875 C-169.15044837 422.246794 -181.03912354 410.62671312 -191.3125 397.375 C-192.47458984 395.93833984 -192.47458984 395.93833984 -193.66015625 394.47265625 C-224.14175242 356.1653571 -244.10163715 306.06430393 -244.55078125 256.8203125 C-244.56052979 255.92915741 -244.57027832 255.03800232 -244.58032227 254.11984253 C-244.75337794 234.19269844 -244.50321225 214.94760876 -240.3125 195.375 C-240.12526367 194.48071289 -239.93802734 193.58642578 -239.74511719 192.66503906 C-238.48945187 186.8334604 -236.99636009 181.09689939 -235.3125 175.375 C-235.06661133 174.53839844 -234.82072266 173.70179688 -234.56738281 172.83984375 C-224.53990822 139.47364222 -207.35940739 109.42044602 -184.3125 83.375 C-183.55324219 82.50488281 -182.79398438 81.63476562 -182.01171875 80.73828125 C-173.16914553 70.73345152 -163.82015269 61.61657924 -153.3125 53.375 C-152.3740625 52.60800781 -151.435625 51.84101562 -150.46875 51.05078125 C-118.10554263 25.15187432 -78.17411994 8.59104213 -37.3125 2.375 C-36.14662354 2.19243652 -34.98074707 2.00987305 -33.77954102 1.82177734 C-22.51920591 0.22281972 -11.36216985 -0.0241437 0 0 Z " fill="#FC3840" transform="translate(244.3125,-0.375)"/>
<path d="M0 0 C5.95208667 3.25782176 9.28610594 7.00201605 11.22265625 13.5078125 C12.52779838 19.97016674 11.7349902 25.72607398 8.625 31.5 C5.67378213 34.99486327 2.66514331 37.37892476 -1.375 39.5 C-2.48875 40.0878125 -2.48875 40.0878125 -3.625 40.6875 C-10.81188096 42.81089665 -17.64323116 41.54438669 -24.375 38.5 C-29.62056423 35.23609337 -31.67288014 30.90423973 -34.375 25.5 C-35.11424785 18.63555564 -35.11527376 12.93613712 -30.93359375 7.25 C-22.21358852 -2.54088306 -12.35604346 -5.60668803 0 0 Z " fill="#FEF7F7" transform="translate(204.375,185.5)"/>
<path d="M0 0 C3.815625 -0.061875 7.63125 -0.12375 11.5625 -0.1875 C13.34636108 -0.22846802 13.34636108 -0.22846802 15.16625977 -0.27026367 C22.88055367 -0.33065843 27.84377263 0.3240681 33.875 5.4375 C37.20734549 9.45591662 37.34761943 12.73766443 37.2890625 17.96875 C36.81066215 21.33048218 35.13165119 23.44201858 33 26 C32.01 26.66 31.02 27.32 30 28 C31.35571097 32.06713292 33.39673943 35.08650139 35.9765625 38.44921875 C37 40 37 40 37 42 C33.46014804 42.71812571 30.51205977 42.93722112 27 42 C24.65327523 39.33894329 22.91006455 36.51873793 21.02734375 33.515625 C19.22362035 30.84535753 19.22362035 30.84535753 16.50390625 30.046875 C13.75418819 29.73067515 13.75418819 29.73067515 10 30 C10 33.96 10 37.92 10 42 C6.7 42 3.4 42 0 42 C0 28.14 0 14.28 0 0 Z " fill="#FEF7F8" transform="translate(269,184)"/>
<path d="M0 0 C5.6615625 -0.12375 5.6615625 -0.12375 11.4375 -0.25 C12.60853271 -0.28641602 13.77956543 -0.32283203 14.98608398 -0.36035156 C21.79942321 -0.43184636 27.13525102 0.3855523 33 4 C36.47005322 7.47005322 36.89633421 10.60051179 37.25 15.375 C36.9728455 19.39374028 36.15271528 21.6171617 34 25 C31.8125 26.875 31.8125 26.875 30 28 C31.35571097 32.06713292 33.39673943 35.08650139 35.9765625 38.44921875 C37 40 37 40 37 42 C33.46014804 42.71812571 30.51205977 42.93722112 27 42 C24.65327523 39.33894329 22.91006455 36.51873793 21.02734375 33.515625 C19.22362035 30.84535753 19.22362035 30.84535753 16.50390625 30.046875 C13.75418819 29.73067515 13.75418819 29.73067515 10 30 C10 33.96 10 37.92 10 42 C6.7 42 3.4 42 0 42 C0 28.14 0 14.28 0 0 Z " fill="#FEF8F8" transform="translate(128,184)"/>
<path d="M0 0 C9 0 9 0 11.39868164 2.29492188 C11.97996826 3.34228516 12.56125488 4.38964844 13.16015625 5.46875 C13.80791016 6.59667969 14.45566406 7.72460938 15.12304688 8.88671875 C15.77027355 10.09074711 16.41674868 11.29517973 17.0625 12.5 C17.74103624 13.70617872 18.42264844 14.91063256 19.10742188 16.11328125 C20.76934126 19.05994683 22.39777108 22.02058322 24 25 C24.65226562 23.94941406 25.30453125 22.89882812 25.9765625 21.81640625 C27.77395334 18.92294457 29.58667581 16.03970766 31.40625 13.16015625 C32.90915497 10.77499438 34.33933857 8.39458914 35.71875 5.93359375 C36.1828125 5.13050781 36.646875 4.32742187 37.125 3.5 C37.49882812 2.8090625 37.87265625 2.118125 38.2578125 1.40625 C40 0 40 0 48 0 C48 13.86 48 27.72 48 42 C45.03 42 42.06 42 39 42 C38.67 34.41 38.34 26.82 38 19 C34.62538265 24.90993103 34.62538265 24.90993103 31.30029297 30.84765625 C27.84721296 36.6943046 27.84721296 36.6943046 23.96875 38.09375 C19.27460084 36.36432662 17.87740208 32.77653591 15.625 28.5 C14.09875 25.695 12.5725 22.89 11 20 C10.67 27.26 10.34 34.52 10 42 C6.7 42 3.4 42 0 42 C0 28.14 0 14.28 0 0 Z " fill="#FEF6F7" transform="translate(359,184)"/>
<path d="M0 0 C3.3268737 1.25410946 3.94093174 1.9113976 6 5 C6.67226891 11.94677871 6.67226891 11.94677871 4.125 15.9375 C2 18 2 18 0 19 C1.04874998 21.62187494 1.64931313 22.79371361 4.125 24.25 C4.74375 24.4975 5.3625 24.745 6 25 C6.66 23.68 7.32 22.36 8 21 C10.31 21.33 12.62 21.66 15 22 C14.5205599 24.94513204 14.05275267 27.81096958 13.25 30.6875 C12.71766823 33.07959132 12.71766823 33.07959132 14.4375 34.8125 C14.953125 35.204375 15.46875 35.59625 16 36 C14.95125002 38.62187494 14.35068687 39.79371361 11.875 41.25 C11.25625 41.4975 10.6375 41.745 10 42 C9.34 41.34 8.68 40.68 8 40 C4.96786829 40.26952282 2.50872707 40.75976777 -0.25 42.0625 C-6.00136538 44.02319274 -11.89636082 43.83770549 -17.4375 41.3125 C-20.7533534 39.40337229 -22.60566837 37.66012052 -24 34 C-24.58777768 30.05349273 -24.21367154 28.38155632 -22.25 24.875 C-20.29452433 22.37633665 -18.32199605 20.15613919 -16 18 C-16.495 17.505 -16.99 17.01 -17.5 16.5 C-19.20583897 13.65693505 -19.68512889 11.35995495 -19.5234375 8.0390625 C-18.67640851 4.73944211 -17.0237951 3.08232433 -14.33984375 1.0625 C-9.77561253 -1.01007244 -4.88042201 -0.71588701 0 0 Z " fill="#FEF8F8" transform="translate(118,258)"/>
<path d="M0 0 C5.6925 -0.12375 5.6925 -0.12375 11.5 -0.25 C12.68013672 -0.28641602 13.86027344 -0.32283203 15.07617188 -0.36035156 C23.12956136 -0.44463754 28.11252098 0.89001678 34.5 6 C36.88388259 10.76776518 36.77115838 15.77557563 36 21 C33.99775876 25.12851512 31.90049498 27.30597133 27.671875 29.28515625 C21.95896158 30.81361116 15.86356413 30.27485457 10 30 C10 33.96 10 37.92 10 42 C6.7 42 3.4 42 0 42 C0 28.14 0 14.28 0 0 Z " fill="#FEF9FA" transform="translate(85,184)"/>
<path d="M0 0 C9 0 9 0 12.00390625 2.4921875 C12.88473487 3.59808537 13.73694357 4.72725189 14.5625 5.875 C15.01794189 6.45983154 15.47338379 7.04466309 15.94262695 7.6472168 C16.86858939 8.83959422 17.78337474 10.04073922 18.68652344 11.25048828 C20.61973548 13.82546923 22.65793277 16.31319195 24.6875 18.8125 C26.3271875 20.8853125 26.3271875 20.8853125 28 23 C28.33 15.41 28.66 7.82 29 0 C32.3 0 35.6 0 39 0 C39 13.86 39 27.72 39 42 C31 42 31 42 28.3125 39.9453125 C27.549375 39.01460938 26.78625 38.08390625 26 37.125 C25.1646875 36.12726563 24.329375 35.12953125 23.46875 34.1015625 C22.6540625 33.07804687 21.839375 32.05453125 21 31 C20.2265625 30.05898438 19.453125 29.11796875 18.65625 28.1484375 C15.9621907 24.83942988 13.36760439 21.55140658 11 18 C10.67 25.92 10.34 33.84 10 42 C6.7 42 3.4 42 0 42 C0 28.14 0 14.28 0 0 Z " fill="#FEF7F8" transform="translate(281,258)"/>
<path d="M0 0 C1.37478516 0.01740234 1.37478516 0.01740234 2.77734375 0.03515625 C3.69644531 0.04417969 4.61554688 0.05320313 5.5625 0.0625 C6.27277344 0.07410156 6.98304688 0.08570313 7.71484375 0.09765625 C10.28307568 5.75550763 12.84644447 11.41552651 15.40527344 17.07763672 C16.27697591 19.00467772 17.15001906 20.93111283 18.02441406 22.85693359 C19.27889882 25.6204981 20.52859201 28.38618489 21.77734375 31.15234375 C22.17107178 32.01697235 22.5647998 32.88160095 22.97045898 33.77243042 C23.33083252 34.57310944 23.69120605 35.37378845 24.0625 36.19873047 C24.38226807 36.90488495 24.70203613 37.61103943 25.03149414 38.33859253 C25.71484375 40.09765625 25.71484375 40.09765625 25.71484375 42.09765625 C22.41484375 42.09765625 19.11484375 42.09765625 15.71484375 42.09765625 C12.71484375 36.47265625 12.71484375 36.47265625 12.71484375 33.09765625 C2.81484375 33.59265625 2.81484375 33.59265625 -7.28515625 34.09765625 C-8.60515625 36.73765625 -9.92515625 39.37765625 -11.28515625 42.09765625 C-14.58515625 42.09765625 -17.88515625 42.09765625 -21.28515625 42.09765625 C-16.70348843 31.30961571 -12.0816705 20.54222974 -7.28515625 9.84765625 C-6.89980713 8.98495117 -6.51445801 8.12224609 -6.11743164 7.23339844 C-5.76028076 6.44094727 -5.40312988 5.64849609 -5.03515625 4.83203125 C-4.720625 4.13303711 -4.40609375 3.43404297 -4.08203125 2.71386719 C-2.89393278 0.30418218 -2.78640972 0.11907734 0 0 Z " fill="#FEFAFA" transform="translate(329.28515625,183.90234375)"/>
<path d="M0 0 C10.56 0 21.12 0 32 0 C32 2.64 32 5.28 32 8 C24.74 8 17.48 8 10 8 C10 10.97 10 13.94 10 17 C16.27 17 22.54 17 29 17 C29 19.31 29 21.62 29 24 C22.73 24 16.46 24 10 24 C10 27.3 10 30.6 10 34 C17.59 34 25.18 34 33 34 C33 36.64 33 39.28 33 42 C22.11 42 11.22 42 0 42 C0 28.14 0 14.28 0 0 Z " fill="#FEF9F9" transform="translate(241,258)"/>
<path d="M0 0 C2.40886933 1.43206177 3.60735513 2.93682008 5.12890625 5.265625 C3.47890625 6.915625 1.82890625 8.565625 0.12890625 10.265625 C-4.62109375 8.390625 -4.62109375 8.390625 -6.87109375 7.265625 C-12.07569462 6.75438401 -16.43555306 6.40430059 -20.99609375 9.140625 C-24.46811982 13.07558788 -24.20026137 16.39883676 -24.16015625 21.4921875 C-23.7388815 25.53414793 -22.60582539 27.29648779 -19.87109375 30.265625 C-16.44876403 31.40640157 -13.78436158 31.36377617 -10.18359375 31.328125 C-9.00410156 31.31910156 -7.82460937 31.31007812 -6.609375 31.30078125 C-5.70574219 31.28917969 -4.80210937 31.27757812 -3.87109375 31.265625 C-3.87109375 27.305625 -3.87109375 23.345625 -3.87109375 19.265625 C-1.23109375 19.265625 1.40890625 19.265625 4.12890625 19.265625 C4.12890625 24.875625 4.12890625 30.485625 4.12890625 36.265625 C-4.13454274 40.98759585 -10.89764398 43.06872884 -20.37890625 40.6171875 C-26.74424393 38.09262984 -31.00855348 34.09346637 -34.00390625 27.9375 C-35.85678765 22.22862219 -36.07374353 15.4263079 -33.92578125 9.78125 C-26.12122191 -3.27543418 -13.31128829 -5.38434133 0 0 Z " fill="#FEF7F7" transform="translate(255.87109375,185.734375)"/>
<path d="M0 0 C10.23 0 20.46 0 31 0 C31 2.64 31 5.28 31 8 C23.74 8 16.48 8 9 8 C9 10.97 9 13.94 9 17 C15.6 17 22.2 17 29 17 C29 19.31 29 21.62 29 24 C22.4 24 15.8 24 9 24 C9 27.3 9 30.6 9 34 C16.59 34 24.18 34 32 34 C32 36.64 32 39.28 32 42 C21.44 42 10.88 42 0 42 C0 28.14 0 14.28 0 0 Z " fill="#FEFCFC" transform="translate(158,258)"/>
<path d="M0 0 C-0.875 5.75 -0.875 5.75 -2 8 C-2.94875 7.67 -3.8975 7.34 -4.875 7 C-9.4797845 5.68165679 -14.24693043 5.40912481 -19 6 C-19.66 6.66 -20.32 7.32 -21 8 C-21 9.32 -21 10.64 -21 12 C-19.75863281 12.37511719 -18.51726562 12.75023437 -17.23828125 13.13671875 C-15.59609858 13.6528333 -13.95418539 14.16980584 -12.3125 14.6875 C-11.49587891 14.93177734 -10.67925781 15.17605469 -9.83789062 15.42773438 C-4.76967976 17.04874109 -1.33076872 18.62545745 2 23 C2.91882936 26.10780517 2.68422422 28.84589321 2 32 C-0.5121709 36.11082511 -3.2563534 38.85624678 -7.859375 40.52734375 C-16.62094397 42.46192376 -24.08049069 40.92471258 -32 37 C-31.125 31.25 -31.125 31.25 -30 29 C-29.46632813 29.2165625 -28.93265625 29.433125 -28.3828125 29.65625 C-22.60091455 31.81695927 -17.17581679 32.85837165 -11 32 C-10.01 31.34 -9.02 30.68 -8 30 C-8.19071563 28.03065292 -8.19071563 28.03065292 -9 26 C-10.77334811 24.9624204 -10.77334811 24.9624204 -13 24.4375 C-13.80953125 24.19515625 -14.6190625 23.9528125 -15.453125 23.703125 C-17.1070043 23.24653255 -18.76317399 22.79812817 -20.421875 22.359375 C-26.07954987 20.72662319 -28.93526327 19.1408487 -32 14 C-32.67465808 9.80212748 -32.30783313 7.6541454 -30.5 3.8125 C-22.20215587 -5.52257465 -10.77135027 -4.46811567 0 0 Z " fill="#FEF7F7" transform="translate(396,260)"/>
<path d="M0 0 C3.63 0 7.26 0 11 0 C12.5734726 3.64493255 14.13984244 7.29282581 15.69970703 10.94360352 C16.23129273 12.18499721 16.76480845 13.4255663 17.30029297 14.6652832 C18.06985843 16.44784809 18.8319069 18.23365229 19.59375 20.01953125 C20.05458984 21.09307861 20.51542969 22.16662598 20.99023438 23.27270508 C22 26 22 26 22 29 C22.66 29 23.32 29 24 29 C24.16870605 28.46632813 24.33741211 27.93265625 24.51123047 27.3828125 C26.4301609 21.45553507 28.68458777 15.73005217 31.125 10 C31.48464844 9.14277344 31.84429687 8.28554688 32.21484375 7.40234375 C34.86811041 1.13188959 34.86811041 1.13188959 36 0 C37.51928038 -0.07179964 39.04167482 -0.08392007 40.5625 -0.0625 C41.38878906 -0.05347656 42.21507812 -0.04445313 43.06640625 -0.03515625 C43.70449219 -0.02355469 44.34257812 -0.01195312 45 0 C44.31433346 4.89335934 42.37516976 9.09923149 40.40234375 13.58203125 C40.04862198 14.39621017 39.69490021 15.2103891 39.33045959 16.04924011 C38.20406863 18.63902389 37.07089072 21.22577305 35.9375 23.8125 C35.17077377 25.57206953 34.40449264 27.33183307 33.63867188 29.09179688 C31.76426435 33.39679636 29.88376599 37.69908781 28 42 C24.7 42 21.4 42 18 42 C13.40343437 32.49310999 9.1783646 22.84905431 5.0625 13.125 C4.56580811 11.95340332 4.06911621 10.78180664 3.55737305 9.57470703 C0 1.1297533 0 1.1297533 0 0 Z " fill="#FEFAFA" transform="translate(192,258)"/>
<path d="M0 0 C12.21 0 24.42 0 37 0 C37 2.64 37 5.28 37 8 C32.38 8 27.76 8 23 8 C23 19.22 23 30.44 23 42 C20.03 42 17.06 42 14 42 C14 30.78 14 19.56 14 8 C9.38 8 4.76 8 0 8 C0 5.36 0 2.72 0 0 Z " fill="#FEFCFC" transform="translate(325,258)"/>
<path d="M0 0 C3.43087554 2.01162847 6.20989367 4.41978733 8 8 C8.43011819 12.21019538 8.4699635 15.88692855 6.8125 19.8125 C1.92181379 25.71505232 1.92181379 25.71505232 -2.37109375 26.3515625 C-7.28147801 26.51208026 -11.21451776 26.44134749 -15 23 C-18.27589981 18.25559339 -18.91242832 13.60491681 -18 8 C-14.04904771 0.23920086 -8.34545575 -1.51037389 0 0 Z " fill="#FC3A42" transform="translate(198,192)"/>
<path d="M0 0 C11.03030303 -0.48484848 11.03030303 -0.48484848 15.25 1.625 C17 4 17 4 17.5625 7 C16.88701736 10.6025741 15.83326787 11.75005199 13 14 C9.14854957 15.92572521 4.19956748 15.04883218 0 15 C0 10.05 0 5.1 0 0 Z " fill="#FC4148" transform="translate(279,192)"/>
<path d="M0 0 C11.03030303 -0.48484848 11.03030303 -0.48484848 15.25 1.625 C17 4 17 4 17.5625 7 C16.88701736 10.6025741 15.83326787 11.75005199 13 14 C9.14854957 15.92572521 4.19956748 15.04883218 0 15 C0 10.05 0 5.1 0 0 Z " fill="#FC3F47" transform="translate(138,192)"/>
<path d="M0 0 C9.94298527 -0.35938501 9.94298527 -0.35938501 14.125 1.0625 C16 3 16 3 17.0625 6.4375 C17 10 17 10 15.41796875 12.20703125 C10.8809622 15.5713059 5.43676658 14.21747066 0 14 C0 9.38 0 4.76 0 0 Z " fill="#FC3B42" transform="translate(95,192)"/>
<path d="M0 0 C3.1398451 1.56992255 3.42143346 4.22447002 4.625 7.4375 C5.07101562 8.61183594 5.51703125 9.78617188 5.9765625 10.99609375 C7 14 7 14 7 16 C2.71 16 -1.58 16 -6 16 C-4.23196827 10.52752083 -2.34565002 5.24978815 0 0 Z " fill="#FC4A51" transform="translate(331,194)"/>
<path d="M0 0 C2.6057682 0.96102644 3.94829616 2.2384181 5.87890625 4.22265625 C6.79929687 5.14884766 6.79929687 5.14884766 7.73828125 6.09375 C9.12890625 7.78515625 9.12890625 7.78515625 9.12890625 9.78515625 C6.36843082 10.70531473 4.49528356 10.9778287 1.62890625 11.03515625 C0.46875 11.07382812 0.46875 11.07382812 -0.71484375 11.11328125 C-3.39832446 10.70492549 -4.27503894 9.94755309 -5.87109375 7.78515625 C-5.7273226 4.90973323 -5.20893495 3.26778654 -3.55859375 0.91015625 C-1.87109375 -0.21484375 -1.87109375 -0.21484375 0 0 Z " fill="#FC4048" transform="translate(108.87109375,282.21484375)"/>
<path d="M0 0 C3 0.125 3 0.125 4 1.125 C4.3125 3.5 4.3125 3.5 4 6.125 C2.1875 8 2.1875 8 0 9.125 C-0.99 8.795 -1.98 8.465 -3 8.125 C-3.38063221 5.7989143 -3.71269945 3.46444736 -4 1.125 C-3 0.125 -3 0.125 0 0 Z " fill="#FC444B" transform="translate(112,263.875)"/>
</svg>
